<svg xmlns="http://www.w3.org/2000/svg" width="298" height="346" fill="none"><path d="M264.568 102.055l5.355-5.355c7.717-7.717 9.124-18.938 3.126-24.935-5.997-5.997-17.217-4.59-24.934 3.127l-5.386 5.385C221.768 63.292 196.11 51.875 168 48.297v-9.583h7.658c10.914 0 19.843-8.711 19.843-19.357C195.501 8.711 186.573 0 175.659 0h-53.317C111.429 0 102.5 8.711 102.5 19.357c0 10.646 8.929 19.357 19.842 19.357H130v9.583C56.681 57.629 0 120.244 0 196.097c0 82.291 66.709 149 149 149 82.29 0 149-66.709 149-149 0-35.663-12.535-68.394-33.432-94.042zM149 306.264c-60.844 0-110.167-49.323-110.167-110.167S88.156 85.93 149 85.93c60.843 0 110.167 49.323 110.167 110.167S209.843 306.264 149 306.264z" fill="#DEDEDE"/><path d="M149 69.048c-69.864 0-126.5 56.636-126.5 126.5s56.636 126.5 126.5 126.5 126.5-56.636 126.5-126.5c0-69.863-56.636-126.5-126.5-126.5zm0 237.216c-60.844 0-110.167-49.323-110.167-110.167S88.156 85.93 149 85.93c60.843 0 110.167 49.323 110.167 110.167S209.843 306.264 149 306.264z" fill="#D22856"/><path d="M144.299 234H84.235v-12.468l21.569-21.514c6.386-6.457 10.559-10.922 12.518-13.396 1.959-2.513 3.37-4.833 4.232-6.959a17.436 17.436 0 001.293-6.611c0-3.402-.96-5.934-2.88-7.597-1.881-1.662-4.408-2.493-7.582-2.493-3.33 0-6.562.753-9.697 2.261-3.134 1.508-6.406 3.654-9.814 6.437L84 160.12c4.231-3.557 7.738-6.07 10.52-7.539 2.782-1.469 5.818-2.59 9.109-3.363 3.292-.812 6.975-1.218 11.049-1.218 5.368 0 10.109.967 14.223 2.9 4.114 1.933 7.307 4.639 9.579 8.118 2.273 3.48 3.409 7.462 3.409 11.946 0 3.905-.705 7.578-2.116 11.018-1.371 3.403-3.526 6.901-6.464 10.497-2.9 3.595-8.032 8.718-15.398 15.367l-11.049 10.265v.811h37.437V234zM215 216.429h-10.344V234h-17.748v-17.571h-36.673v-12.468l37.672-54.743h16.749v53.293H215v13.918zm-28.092-13.918v-14.382c0-2.396.098-5.876.293-10.438.196-4.562.353-7.21.471-7.945h-.471a64.38 64.38 0 01-5.23 9.279l-15.751 23.486h20.688z" fill="#D22856"/></svg>